<?xml version="1.0"?>
<svg xmlns="http://www.w3.org/2000/svg" version="1.1" width="128" height="128" viewBox="0 0 20 20">

  <defs>
    <clipPath id="cut-off">
      <path d="M 4 2 Q 3 2 3 3 L 3 17 Q 3 18 4 18 L 16 18 Q 17 18 17 17 L 17 6 L 14 6 Q 13 6 13 5 L 13 2 Z" />
    </clipPath>
    <filter id="shadow" x="-10" y="-10" width="20" height="20">
      <feOffset result="offOut" in="SourceAlpha" dx="0" dy="0.5" />
      <feGaussianBlur result="blurOut" in="offOut" stdDeviation="0.5" />
      <feBlend in="SourceGraphic" in2="blurOut" mode="normal" />
    </filter>
    <symbol id="ch-T">
      <path d="M 0 0 0 1 1 1 1 3 2 3 2 1 3 1 3 0 Z" />
    </symbol>
    <symbol id="ch-J">
      <path d="M 1 0 L 1 1 Q 1 2 0 2 L 0 3 Q 2 3 2 1 L 2 0 Z" />
    </symbol>
    <symbol id="ch-S">
      <path d="M 2 1 L 3 1 L 3 0 L 1 0 A 1 1 0 0 0 1 2 L 0 2 L 0 3 L 2 3 A 1 1 0 0 0 2 1 Z" />
    </symbol>

    <symbol id="code">
      <path d="M 1 0 0 2 1 4 2 4 1 2 2 0 Z
  M 4 0 3 4 4 4 5 0 Z
  M 6 0 7 2 6 4 7 4 8 2 7 0 Z" />
    </symbol>

  </defs>

  <path d="M 4 2 Q 3 2 3 3
    L 3 17 Q 3 18 4 18
    L 16 18 Q 17 18 17 17
    L 17 6
    L 13 2 Z" fill="white" filter="url(#shadow)" />
  <path d="M 17 6 L 13 2 13 5 Q 13 6 14 6 Z" fill="#CCC" />

  <circle cx="10" cy="24" r="12" clip-path="url(#cut-off)" fill="#FF933A" />

  <use x="6" y="14" href="#ch-T" fill="white" />
  <use x="9" y="14" href="#ch-J" fill="white" />
  <use x="11" y="14" href="#ch-S" fill="white" />

  <use x="6" y="6" href="#code" fill="#FF933A" />
</svg>